<?xml version="1.0" standalone="no"?>
<!DOCTYPE svg PUBLIC "-//W3C//DTD SVG 20010904//EN"
 "http://www.w3.org/TR/2001/REC-SVG-20010904/DTD/svg10.dtd">
<svg version="1.0" xmlns="http://www.w3.org/2000/svg"
 width="700.000000pt" height="700.000000pt" viewBox="0 0 700.000000 700.000000"
 preserveAspectRatio="xMidYMid meet">
<metadata>
Created by potrace 1.14, written by Peter Selinger 2001-2017
</metadata>
<g transform="translate(0.000000,700.000000) scale(0.100000,-0.100000)"
fill="#000000" stroke="none">
<path d="M3280 6994 c-19 -2 -84 -9 -145 -14 -639 -62 -1263 -314 -1795 -726
-148 -114 -480 -446 -594 -594 -411 -530 -654 -1132 -728 -1795 -17 -155 -17
-575 0 -730 17 -150 54 -355 92 -505 223 -882 800 -1655 1594 -2133 429 -259
899 -416 1431 -479 142 -17 586 -17 730 0 585 68 1099 254 1570 567 194 130
336 245 504 409 598 587 943 1295 1043 2141 17 144 17 586 0 730 -86 723 -351
1346 -803 1885 -126 151 -375 392 -519 504 -518 403 -1094 640 -1750 722 -117
15 -552 27 -630 18z m600 -250 c559 -65 1106 -280 1553 -612 350 -259 648
-587 869 -954 573 -955 618 -2146 119 -3138 -158 -314 -337 -564 -580 -814
-493 -503 -1075 -814 -1761 -940 -203 -37 -352 -49 -590 -49 -221 0 -340 10
-540 44 -831 140 -1575 601 -2086 1291 -337 455 -551 1011 -615 1598 -16 148
-16 512 0 660 74 676 335 1285 772 1795 95 111 318 329 422 412 697 558 1561
809 2437 707z"/>
<path d="M3445 5454 c-11 -2 -45 -9 -75 -15 -30 -6 -91 -26 -136 -44 -382
-153 -728 -546 -877 -997 -145 -437 -143 -971 5 -1417 71 -215 312 -672 603
-1146 139 -226 336 -535 341 -535 2 0 -21 46 -51 103 -535 983 -823 1905 -766
2442 81 752 626 1397 1151 1362 252 -17 480 -168 591 -392 51 -105 72 -190 73
-300 3 -269 -146 -400 -432 -381 -112 8 -177 30 -268 95 -75 53 -194 172 -263
266 -25 33 -49 65 -54 70 -4 6 6 -30 23 -79 84 -237 189 -406 309 -496 65 -49
183 -88 294 -96 228 -18 461 98 590 294 100 150 119 329 62 559 -46 182 -136
336 -269 460 -163 153 -460 255 -731 252 -55 -1 -109 -3 -120 -5z"/>
<path d="M3320 1270 c6 -11 13 -20 16 -20 2 0 0 9 -6 20 -6 11 -13 20 -16 20
-2 0 0 -9 6 -20z"/>
</g>
</svg>
