<svg width="40" height="40" viewBox="0 0 40 40" fill="none" xmlns="http://www.w3.org/2000/svg">
<circle cx="20" cy="20" r="20" fill="#AB0101"/>
<path d="M20 20C18.9 20 17.9583 19.6083 17.175 18.825C16.3917 18.0417 16 17.1 16 16C16 14.9 16.3917 13.9583 17.175 13.175C17.9583 12.3917 18.9 12 20 12C21.1 12 22.0417 12.3917 22.825 13.175C23.6083 13.9583 24 14.9 24 16C24 17.1 23.6083 18.0417 22.825 18.825C22.0417 19.6083 21.1 20 20 20ZM14 28C13.45 28 12.979 27.804 12.587 27.412C12.195 27.02 11.9993 26.5493 12 26V25.2C12 24.6333 12.146 24.1123 12.438 23.637C12.73 23.1617 13.1173 22.7993 13.6 22.55C14.6333 22.0333 15.6833 21.6457 16.75 21.387C17.8167 21.1283 18.9 20.9993 20 21C21.1 21 22.1833 21.1293 23.25 21.388C24.3167 21.6467 25.3667 22.034 26.4 22.55C26.8833 22.8 27.271 23.1627 27.563 23.638C27.855 24.1133 28.0007 24.634 28 25.2V26C28 26.55 27.804 27.021 27.412 27.413C27.02 27.805 26.5493 28.0007 26 28H14Z" fill="white"/>
</svg>
