<svg width="52" height="52" viewBox="0 0 52 52" fill="none" xmlns="http://www.w3.org/2000/svg">
<circle cx="26" cy="26" r="26" fill="#AB0101"/>
<path d="M18.3318 12.6392C16.8854 12.6392 15.7256 13.764 15.7256 15.1669V35.3892C15.7256 36.0596 16.0002 36.7025 16.4889 37.1766C16.9777 37.6506 17.6406 37.9169 18.3318 37.9169H23.5443V35.5029L26.2678 32.8614H18.3318V30.3336H28.874L31.4802 27.8058H18.3318V25.278H34.0864L36.5754 22.864V20.2225L28.7567 12.6392H18.3318ZM27.4536 14.535L34.6207 21.4864H27.4536V14.535ZM36.7709 26.5419C36.6744 26.5399 36.5785 26.5567 36.489 26.5915C36.3994 26.6262 36.318 26.6782 36.2496 26.7442L34.9204 28.0333L37.6439 30.6622L38.9731 29.3857C39.2468 29.1076 39.2468 28.6526 38.9731 28.3872L37.2791 26.7442C37.2125 26.6794 37.1332 26.6281 37.046 26.5934C36.9587 26.5586 36.8652 26.5412 36.7709 26.5419ZM34.1516 28.779L26.1505 36.5519V39.1808H28.861L36.8751 31.4079L34.1516 28.779Z" fill="white"/>
</svg>
