<svg width="36" height="36" viewBox="0 0 36 36" fill="none" xmlns="http://www.w3.org/2000/svg">
<circle cx="18" cy="18" r="18" fill="#AB0101"/>
<path d="M12.6905 8.75C11.6891 8.75 10.8862 9.52875 10.8862 10.5V24.5C10.8862 24.9641 11.0763 25.4092 11.4147 25.7374C11.7531 26.0656 12.212 26.25 12.6905 26.25H16.2992V24.5788L18.1847 22.75H12.6905V21H19.989L21.7933 19.25H12.6905V17.5H23.5976L25.3207 15.8288V14L19.9078 8.75H12.6905ZM19.0056 10.0625L23.9675 14.875H19.0056V10.0625ZM25.456 18.375C25.3893 18.3736 25.3229 18.3852 25.2609 18.4093C25.1989 18.4334 25.1425 18.4693 25.0952 18.515L24.175 19.4075L26.0605 21.2275L26.9807 20.3438C27.1701 20.1512 27.1701 19.8363 26.9807 19.6525L25.8079 18.515C25.7618 18.4701 25.7069 18.4346 25.6465 18.4106C25.5861 18.3866 25.5213 18.3745 25.456 18.375ZM23.6427 19.9237L18.1035 25.305V27.125H19.98L25.5282 21.7438L23.6427 19.9237Z" fill="white"/>
</svg>
