<svg width="52" height="52" viewBox="0 0 52 52" fill="none" xmlns="http://www.w3.org/2000/svg">
<circle cx="26" cy="26" r="26" fill="#AB0101"/>
<path d="M15.4094 22.2525C16.2741 22.2525 16.975 21.5261 16.975 20.6302C16.975 19.7342 16.2741 19.0078 15.4094 19.0078C14.5447 19.0078 13.8438 19.7342 13.8438 20.6302C13.8438 21.5261 14.5447 22.2525 15.4094 22.2525Z" fill="white"/>
<path d="M28.8399 16.3004C30.5858 16.3004 32.0012 14.8338 32.0012 13.0247C32.0012 11.2156 30.5858 9.74902 28.8399 9.74902C27.094 9.74902 25.6787 11.2156 25.6787 13.0247C25.6787 14.8338 27.094 16.3004 28.8399 16.3004Z" fill="white"/>
<path d="M22.3187 16.1132C23.4078 16.1132 24.2907 15.1984 24.2907 14.0698C24.2907 12.9412 23.4078 12.0264 22.3187 12.0264C21.2296 12.0264 20.3467 12.9412 20.3467 14.0698C20.3467 15.1984 21.2296 16.1132 22.3187 16.1132Z" fill="white"/>
<path d="M31.4024 34.8875C30.9165 34.0793 30.6437 33.1532 30.6115 32.2016C30.5792 31.25 30.7885 30.3064 31.2185 29.4649L31.2062 29.4458C32.0157 28.1899 32.4469 26.7131 32.4452 25.2028C32.4452 20.9709 29.1343 17.5405 25.0507 17.5405C20.9668 17.5405 17.6562 20.9709 17.6562 25.2028C17.6562 26.0292 17.7861 26.8236 18.0201 27.5698C18.175 28.2296 18.4264 28.8611 18.7658 29.4421L18.7311 29.4626L24.0872 39.076C24.6526 40.8097 26.2316 42.0591 28.0951 42.0591C30.4331 42.0591 32.3294 40.0953 32.3294 37.6722C32.3294 36.6212 31.9717 35.6568 31.3764 34.9013L31.4024 34.8875Z" fill="white"/>
<path d="M18.1545 18.8174C19.0192 18.8174 19.7202 18.0911 19.7202 17.1951C19.7202 16.2991 19.0192 15.5728 18.1545 15.5728C17.2898 15.5728 16.5889 16.2991 16.5889 17.1951C16.5889 18.0911 17.2898 18.8174 18.1545 18.8174Z" fill="white"/>
</svg>
