<svg width="52" height="52" viewBox="0 0 52 52" fill="none" xmlns="http://www.w3.org/2000/svg">
<circle cx="26" cy="26" r="26" fill="#AB0101"/>
<path d="M23.8934 23.8338C22.3707 23.8338 21.0672 23.2917 19.9829 22.2073C18.8985 21.123 18.3564 19.8195 18.3564 18.2968C18.3564 16.7741 18.8985 15.4706 19.9829 14.3863C21.0672 13.3019 22.3707 12.7598 23.8934 12.7598C25.4161 12.7598 26.7196 13.3019 27.8039 14.3863C28.8883 15.4706 29.4305 16.7741 29.4305 18.2968C29.4305 19.8195 28.8883 21.123 27.8039 22.2073C26.7196 23.2917 25.4161 23.8338 23.8934 23.8338ZM38.2897 38.7838L34.8291 35.3232C34.3446 35.6 33.8255 35.8308 33.2718 36.0153C32.7181 36.1999 32.1298 36.2922 31.5068 36.2922C29.7765 36.2922 28.306 35.6863 27.0952 34.4746C25.8844 33.263 25.2786 31.7924 25.2777 30.063C25.2777 28.3327 25.8835 26.8617 27.0952 25.65C28.3069 24.4383 29.7774 23.8329 31.5068 23.8338C33.2372 23.8338 34.7082 24.4397 35.9199 25.6514C37.1315 26.8631 37.7369 28.3336 37.736 30.063C37.736 30.6859 37.6437 31.2742 37.4592 31.8279C37.2746 32.3816 37.0439 32.9007 36.767 33.3852L40.2277 36.8459C40.4815 37.0997 40.6083 37.4227 40.6083 37.8149C40.6083 38.2071 40.4815 38.5301 40.2277 38.7838C39.9739 39.0376 39.6509 39.1645 39.2587 39.1645C38.8665 39.1645 38.5435 39.0376 38.2897 38.7838ZM31.5068 33.5237C32.4758 33.5237 33.2948 33.1891 33.9639 32.5201C34.633 31.851 34.9675 31.032 34.9675 30.063C34.9675 29.094 34.633 28.275 33.9639 27.6059C33.2948 26.9369 32.4758 26.6024 31.5068 26.6024C30.5379 26.6024 29.7188 26.9369 29.0498 27.6059C28.3807 28.275 28.0462 29.094 28.0462 30.063C28.0462 31.032 28.3807 31.851 29.0498 32.5201C29.7188 33.1891 30.5379 33.5237 31.5068 33.5237ZM15.5879 34.9079C14.8265 34.9079 14.1745 34.6366 13.6319 34.094C13.0893 33.5513 12.8184 32.8998 12.8193 32.1394V31.0666C12.8193 30.2822 13.0154 29.5554 13.4076 28.8864C13.7999 28.2173 14.342 27.7098 15.0342 27.3637C16.2108 26.7639 17.5374 26.2563 19.0139 25.841C20.4904 25.4257 22.1285 25.2181 23.928 25.2181C23.4666 25.9333 23.1145 26.7006 22.8718 27.5201C22.6291 28.3396 22.5082 29.1872 22.5092 30.063C22.5092 30.9166 22.6305 31.7532 22.8732 32.5727C23.1159 33.3922 23.4671 34.1706 23.9266 34.9079H15.5879Z" fill="white"/>
</svg>
