<svg width="36" height="36" viewBox="0 0 36 36" fill="none" xmlns="http://www.w3.org/2000/svg">
<circle cx="18" cy="18" r="18" fill="#AB0101"/>
<g clip-path="url(#clip0_19_265)">
<path d="M10.6684 15.4055C11.267 15.4055 11.7523 14.9026 11.7523 14.2823C11.7523 13.662 11.267 13.1592 10.6684 13.1592C10.0698 13.1592 9.58447 13.662 9.58447 14.2823C9.58447 14.9026 10.0698 15.4055 10.6684 15.4055Z" fill="white"/>
<path d="M19.9659 11.2851C21.1746 11.2851 22.1544 10.2698 22.1544 9.0173C22.1544 7.76484 21.1746 6.74951 19.9659 6.74951C18.7572 6.74951 17.7773 7.76484 17.7773 9.0173C17.7773 10.2698 18.7572 11.2851 19.9659 11.2851Z" fill="white"/>
<path d="M15.4522 11.1555C16.2062 11.1555 16.8174 10.5222 16.8174 9.74086C16.8174 8.95955 16.2062 8.32617 15.4522 8.32617C14.6982 8.32617 14.0869 8.95955 14.0869 9.74086C14.0869 10.5222 14.6982 11.1555 15.4522 11.1555Z" fill="white"/>
<path d="M21.7407 24.153C21.4043 23.5935 21.2155 22.9523 21.1931 22.2935C21.1708 21.6348 21.3157 20.9814 21.6133 20.3989L21.6049 20.3857C22.1653 19.5162 22.4638 18.4938 22.4626 17.4482C22.4626 14.5184 20.1705 12.1436 17.3434 12.1436C14.516 12.1436 12.2241 14.5184 12.2241 17.4482C12.2241 18.0204 12.314 18.5703 12.476 19.0869C12.5832 19.5437 12.7573 19.9808 12.9922 20.3831L12.9683 20.3973L16.6763 27.0527C17.0678 28.253 18.1609 29.118 19.451 29.118C21.0696 29.118 22.3825 27.7584 22.3825 26.0809C22.3825 25.3532 22.1348 24.6856 21.7227 24.1626L21.7407 24.153Z" fill="white"/>
<path d="M12.5688 13.0276C13.1674 13.0276 13.6527 12.5247 13.6527 11.9044C13.6527 11.2841 13.1674 10.7812 12.5688 10.7812C11.9701 10.7812 11.4849 11.2841 11.4849 11.9044C11.4849 12.5247 11.9701 13.0276 12.5688 13.0276Z" fill="white"/>
</g>
<defs>
<clipPath id="clip0_19_265">
<rect width="14" height="24" fill="white" transform="translate(9 6)"/>
</clipPath>
</defs>
</svg>
