<svg width="36" height="36" viewBox="0 0 36 36" fill="none" xmlns="http://www.w3.org/2000/svg">
<circle cx="18" cy="18" r="18" fill="#AB0101"/>
<g clip-path="url(#clip0_19_286)">
<path d="M16.5417 16.5002C15.4875 16.5002 14.5851 16.1248 13.8344 15.3741C13.0837 14.6234 12.7083 13.721 12.7083 12.6668C12.7083 11.6127 13.0837 10.7102 13.8344 9.95954C14.5851 9.20884 15.4875 8.8335 16.5417 8.8335C17.5958 8.8335 18.4983 9.20884 19.249 9.95954C19.9997 10.7102 20.375 11.6127 20.375 12.6668C20.375 13.721 19.9997 14.6234 19.249 15.3741C18.4983 16.1248 17.5958 16.5002 16.5417 16.5002ZM26.5083 26.8502L24.1125 24.4543C23.7771 24.646 23.4177 24.8057 23.0344 24.9335C22.651 25.0613 22.2438 25.1252 21.8125 25.1252C20.6146 25.1252 19.5965 24.7057 18.7583 23.8669C17.9201 23.028 17.5006 22.0099 17.5 20.8127C17.5 19.6147 17.9194 18.5964 18.7583 17.7575C19.5972 16.9186 20.6152 16.4995 21.8125 16.5002C23.0104 16.5002 24.0288 16.9196 24.8677 17.7585C25.7065 18.5973 26.1256 19.6154 26.125 20.8127C26.125 21.2439 26.0611 21.6512 25.9333 22.0345C25.8056 22.4179 25.6458 22.7772 25.4542 23.1127L27.85 25.5085C28.0257 25.6842 28.1135 25.9078 28.1135 26.1793C28.1135 26.4509 28.0257 26.6745 27.85 26.8502C27.6743 27.0259 27.4507 27.1137 27.1792 27.1137C26.9076 27.1137 26.684 27.0259 26.5083 26.8502ZM21.8125 23.2085C22.4833 23.2085 23.0503 22.9769 23.5135 22.5137C23.9767 22.0505 24.2083 21.4835 24.2083 20.8127C24.2083 20.1418 23.9767 19.5748 23.5135 19.1116C23.0503 18.6484 22.4833 18.4168 21.8125 18.4168C21.1417 18.4168 20.5747 18.6484 20.1115 19.1116C19.6483 19.5748 19.4167 20.1418 19.4167 20.8127C19.4167 21.4835 19.6483 22.0505 20.1115 22.5137C20.5747 22.9769 21.1417 23.2085 21.8125 23.2085ZM10.7917 24.1668C10.2646 24.1668 9.81321 23.979 9.43754 23.6033C9.06188 23.2277 8.87436 22.7766 8.875 22.2502V21.5075C8.875 20.9644 9.01077 20.4613 9.28229 19.9981C9.55382 19.5349 9.92917 19.1835 10.4083 18.9439C11.2229 18.5286 12.1413 18.1772 13.1635 17.8897C14.1858 17.6022 15.3198 17.4585 16.5656 17.4585C16.2462 17.9536 16.0024 18.4849 15.8344 19.0522C15.6664 19.6195 15.5827 20.2064 15.5833 20.8127C15.5833 21.4036 15.6673 21.9828 15.8354 22.5501C16.0034 23.1175 16.2465 23.6564 16.5647 24.1668H10.7917Z" fill="white"/>
</g>
<defs>
<clipPath id="clip0_19_286">
<rect width="21" height="20" fill="white" transform="translate(8 8)"/>
</clipPath>
</defs>
</svg>
