<svg width="10" height="16" viewBox="0 0 10 16" fill="none" xmlns="http://www.w3.org/2000/svg">
<path d="M7.60402 15.2042L0.583184 8.55423C0.49985 8.47506 0.440684 8.3893 0.405684 8.29694C0.370684 8.20458 0.353461 8.10562 0.354017 8.00007C0.354017 7.89451 0.371517 7.79555 0.406517 7.70319C0.441517 7.61083 0.500406 7.52506 0.583184 7.4459L7.60402 0.776107C7.79846 0.591384 8.04152 0.499023 8.33318 0.499023C8.62485 0.499023 8.87485 0.597982 9.08318 0.795898C9.29152 0.993815 9.39568 1.22472 9.39568 1.48861C9.39568 1.7525 9.29152 1.9834 9.08318 2.18132L2.95818 8.00007L9.08318 13.8188C9.27763 14.0035 9.37485 14.2313 9.37485 14.502C9.37485 14.7728 9.27068 15.0068 9.06235 15.2042C8.85402 15.4021 8.61096 15.5011 8.33318 15.5011C8.05541 15.5011 7.81235 15.4021 7.60402 15.2042Z" fill="#040404"/>
</svg>
