<svg width="11" height="17" viewBox="0 0 11 17" fill="none" xmlns="http://www.w3.org/2000/svg">
<path d="M8.36466 16.4626L0.641746 9.1126C0.550079 9.0251 0.484996 8.93031 0.446496 8.82822C0.407996 8.72614 0.389052 8.61677 0.389663 8.5001C0.389663 8.38343 0.408913 8.27406 0.447413 8.17197C0.485913 8.06989 0.550691 7.9751 0.641746 7.8876L8.36466 0.515723C8.57855 0.311556 8.84591 0.209473 9.16675 0.209473C9.48758 0.209473 9.76258 0.318848 9.99175 0.537598C10.2209 0.756348 10.3355 1.01156 10.3355 1.30322C10.3355 1.59489 10.2209 1.8501 9.99175 2.06885L3.25425 8.5001L9.99175 14.9313C10.2056 15.1355 10.3126 15.3872 10.3126 15.6865C10.3126 15.9857 10.198 16.2444 9.96883 16.4626C9.73966 16.6813 9.4723 16.7907 9.16675 16.7907C8.86119 16.7907 8.59383 16.6813 8.36466 16.4626Z" fill="#9B9B9B"/>
</svg>
