<svg width="17" height="32" viewBox="0 0 17 32" fill="none" xmlns="http://www.w3.org/2000/svg">
<path d="M12.9276 28.1334L0.992144 16.9334C0.850478 16.8 0.749894 16.6556 0.690394 16.5C0.630894 16.3445 0.601617 16.1778 0.602561 16C0.602561 15.8223 0.632311 15.6556 0.691811 15.5C0.751311 15.3445 0.851422 15.2 0.992144 15.0667L12.9276 3.83337C13.2581 3.52225 13.6713 3.3667 14.1671 3.3667C14.663 3.3667 15.088 3.53337 15.4421 3.8667C15.7963 4.20003 15.9734 4.58892 15.9734 5.03337C15.9734 5.47781 15.7963 5.8667 15.4421 6.20003L5.02964 16L15.4421 25.8C15.7727 26.1111 15.938 26.4947 15.938 26.9507C15.938 27.4067 15.7609 27.8009 15.4067 28.1334C15.0526 28.4667 14.6394 28.6334 14.1671 28.6334C13.6949 28.6334 13.2817 28.4667 12.9276 28.1334Z" fill="#040404"/>
</svg>
