<svg width="16" height="26" viewBox="0 0 16 26" fill="none" xmlns="http://www.w3.org/2000/svg">
<path d="M3.07244 25.1334L15.0079 13.9334C15.1495 13.8 15.2501 13.6556 15.3096 13.5C15.3691 13.3445 15.3984 13.1778 15.3974 13C15.3974 12.8223 15.3677 12.6556 15.3082 12.5C15.2487 12.3445 15.1486 12.2 15.0079 12.0667L3.07244 0.833366C2.74188 0.522255 2.32869 0.366699 1.83286 0.366699C1.33702 0.366699 0.912024 0.533366 0.557858 0.866699C0.203691 1.20003 0.0266075 1.58892 0.0266075 2.03337C0.0266075 2.47781 0.203691 2.8667 0.557858 3.20003L10.9704 13L0.557858 22.8C0.227302 23.1111 0.0620232 23.4947 0.0620232 23.9507C0.0620232 24.4067 0.239106 24.8009 0.593273 25.1334C0.94744 25.4667 1.36063 25.6334 1.83286 25.6334C2.30508 25.6334 2.71827 25.4667 3.07244 25.1334Z" fill="#040404"/>
</svg>
