<svg width="36" height="36" viewBox="0 0 36 36" fill="none" xmlns="http://www.w3.org/2000/svg">
<rect x="1" y="1" width="34" height="34" rx="17" fill="white"/>
<path d="M15.4888 19.9213L22.8969 12.3528C23.1271 12.1176 23.42 12 23.7758 12C24.1315 12 24.4245 12.1176 24.6547 12.3528C24.8849 12.5879 25 12.8873 25 13.2507C25 13.6142 24.8849 13.9135 24.6547 14.1487L16.3677 22.6152C16.1166 22.8717 15.8236 23 15.4888 23C15.154 23 14.861 22.8717 14.6099 22.6152L11.3453 19.2799C11.1151 19.0447 11 18.7454 11 18.3819C11 18.0185 11.1151 17.7191 11.3453 17.484C11.5755 17.2488 11.8685 17.1312 12.2242 17.1312C12.58 17.1312 12.8729 17.2488 13.1031 17.484L15.4888 19.9213Z" fill="#AB0101"/>
<rect x="1" y="1" width="34" height="34" rx="17" stroke="#AB0101" stroke-width="2"/>
</svg>
