<svg width="36" height="36" viewBox="0 0 36 36" fill="none" xmlns="http://www.w3.org/2000/svg">
<rect width="36" height="36" rx="18" fill="#AB0101"/>
<path d="M25 18C25 18.1547 24.9385 18.3031 24.8291 18.4125C24.7197 18.5219 24.5714 18.5833 24.4167 18.5833H18.5833V24.4167C18.5833 24.5714 18.5219 24.7197 18.4125 24.8291C18.3031 24.9385 18.1547 25 18 25C17.8453 25 17.6969 24.9385 17.5875 24.8291C17.4781 24.7197 17.4167 24.5714 17.4167 24.4167V18.5833H11.5833C11.4286 18.5833 11.2803 18.5219 11.1709 18.4125C11.0615 18.3031 11 18.1547 11 18C11 17.8453 11.0615 17.6969 11.1709 17.5875C11.2803 17.4781 11.4286 17.4167 11.5833 17.4167H17.4167V11.5833C17.4167 11.4286 17.4781 11.2803 17.5875 11.1709C17.6969 11.0615 17.8453 11 18 11C18.1547 11 18.3031 11.0615 18.4125 11.1709C18.5219 11.2803 18.5833 11.4286 18.5833 11.5833V17.4167H24.4167C24.5714 17.4167 24.7197 17.4781 24.8291 17.5875C24.9385 17.6969 25 17.8453 25 18Z" fill="white"/>
</svg>
