<svg width="36" height="37" viewBox="0 0 36 37" fill="none" xmlns="http://www.w3.org/2000/svg">
<circle cx="18" cy="18.5" r="18" fill="#AB0101"/>
<path d="M15.3937 14.132L15.9735 15.171C16.4961 16.109 16.2861 17.3382 15.4625 18.1628C15.4625 18.1628 14.4619 19.1624 16.2754 20.975C18.0862 22.7858 19.0868 21.7879 19.0868 21.7879C19.9113 20.9634 21.1415 20.7535 22.0786 21.2761L23.1175 21.8567C24.5335 22.6464 24.7005 24.6315 23.4561 25.8768C22.7084 26.6236 21.7918 27.2061 20.7797 27.2436C19.0752 27.3088 16.1798 26.8773 13.2756 23.974C10.3722 21.0697 9.94074 18.1744 10.006 16.4699C10.0444 15.4577 10.6259 14.5412 11.3728 13.7934C12.6181 12.549 14.6031 12.7161 15.3928 14.1329L15.3937 14.132ZM18.272 11.0625C18.3008 10.8871 18.3979 10.7303 18.5421 10.6265C18.6863 10.5226 18.8658 10.4802 19.0412 10.5086C19.0635 10.5131 19.1368 10.5265 19.1752 10.5354C19.2512 10.5515 19.3575 10.5783 19.4897 10.6158C19.755 10.6935 20.1257 10.8213 20.5706 11.025C21.4604 11.4332 22.6441 12.147 23.8733 13.3753C25.1025 14.6046 25.8163 15.7892 26.2246 16.6789C26.4283 17.1238 26.5551 17.4936 26.6328 17.7599C26.672 17.8936 26.7057 18.0289 26.7338 18.1654L26.7383 18.1931C26.7677 18.37 26.7264 18.5514 26.6233 18.6982C26.5201 18.8449 26.3635 18.9452 26.1871 18.9775C26.0121 19.0059 25.8331 18.9638 25.6891 18.8605C25.5451 18.7572 25.4479 18.6011 25.4188 18.4263C25.4005 18.3276 25.3763 18.23 25.3464 18.1342C25.2551 17.8274 25.1417 17.5276 25.007 17.2373C24.6586 16.4779 24.0314 15.4291 22.9255 14.3232C21.8204 13.2172 20.7707 12.591 20.0114 12.2426C19.7213 12.1079 19.4219 11.9944 19.1154 11.9031C19.0214 11.8766 18.9266 11.8528 18.8313 11.8316C18.6556 11.8026 18.4984 11.7057 18.3936 11.5618C18.2888 11.4179 18.2449 11.2385 18.2712 11.0625H18.272Z" fill="white"/>
<path fill-rule="evenodd" clip-rule="evenodd" d="M18.4742 14.1439C18.4983 14.0592 18.5388 13.9801 18.5935 13.9111C18.6481 13.8422 18.7159 13.7846 18.7928 13.7418C18.8697 13.699 18.9543 13.6718 19.0417 13.6617C19.1291 13.6516 19.2177 13.6588 19.3023 13.6829L19.305 13.6838L19.3077 13.6847L19.3148 13.6865L19.3327 13.6918L19.3827 13.7097C19.6202 13.8012 19.8494 13.9126 20.0679 14.0429C20.5048 14.302 21.1015 14.7308 21.8028 15.433C22.5041 16.1342 22.9338 16.731 23.1928 17.1678C23.3224 17.3867 23.4081 17.5645 23.4635 17.6949C23.4932 17.7631 23.5201 17.8326 23.5439 17.9031L23.5484 17.9209L23.5511 17.9281V17.9307L23.552 17.9316C23.552 17.9316 23.552 17.9334 22.9088 18.1175L23.552 17.9334C23.5973 18.1025 23.5748 18.2825 23.4891 18.4352C23.4034 18.5878 23.2614 18.7008 23.0934 18.75C22.9255 18.7993 22.7449 18.7809 22.5904 18.6987C22.4358 18.6166 22.3196 18.4772 22.2664 18.3104L22.2638 18.3015C22.201 18.1459 22.1263 17.9954 22.0404 17.8512C21.8403 17.5144 21.4803 17.0052 20.855 16.3799C20.2296 15.7546 19.7213 15.3954 19.3845 15.1962C19.2404 15.1103 19.0899 15.0357 18.9343 14.9729L18.9253 14.9693C18.7566 14.9186 18.6146 14.8034 18.5302 14.6487C18.4457 14.4941 18.4256 14.3133 18.4742 14.1439Z" fill="white"/>
</svg>
