<svg width="36" height="36" viewBox="0 0 36 36" fill="none" xmlns="http://www.w3.org/2000/svg">
<circle cx="18" cy="18" r="18" fill="#AB0101"/>
<path d="M15.3937 13.632L15.9735 14.671C16.4961 15.609 16.2861 16.8382 15.4625 17.6628C15.4625 17.6628 14.4619 18.6624 16.2754 20.475C18.0862 22.2858 19.0868 21.2879 19.0868 21.2879C19.9113 20.4634 21.1415 20.2535 22.0786 20.7761L23.1175 21.3567C24.5335 22.1464 24.7005 24.1315 23.4561 25.3768C22.7084 26.1236 21.7918 26.7061 20.7797 26.7436C19.0752 26.8088 16.1798 26.3773 13.2756 23.474C10.3722 20.5697 9.94074 17.6744 10.006 15.9699C10.0444 14.9577 10.6259 14.0412 11.3728 13.2934C12.6181 12.049 14.6031 12.2161 15.3928 13.6329L15.3937 13.632ZM18.272 10.5625C18.3008 10.3871 18.3979 10.2303 18.5421 10.1265C18.6863 10.0226 18.8658 9.98024 19.0412 10.0086C19.0635 10.0131 19.1368 10.0265 19.1752 10.0354C19.2512 10.0515 19.3575 10.0783 19.4897 10.1158C19.755 10.1935 20.1257 10.3213 20.5706 10.525C21.4604 10.9332 22.6441 11.647 23.8733 12.8753C25.1025 14.1046 25.8163 15.2892 26.2246 16.1789C26.4283 16.6238 26.5551 16.9936 26.6328 17.2599C26.672 17.3936 26.7057 17.5289 26.7338 17.6654L26.7383 17.6931C26.7677 17.87 26.7264 18.0514 26.6233 18.1982C26.5201 18.3449 26.3635 18.4452 26.1871 18.4775C26.0121 18.5059 25.8331 18.4638 25.6891 18.3605C25.5451 18.2572 25.4479 18.1011 25.4188 17.9263C25.4005 17.8276 25.3763 17.73 25.3464 17.6342C25.2551 17.3274 25.1417 17.0276 25.007 16.7373C24.6586 15.9779 24.0314 14.9291 22.9255 13.8232C21.8204 12.7172 20.7707 12.091 20.0114 11.7426C19.7213 11.6079 19.4219 11.4944 19.1154 11.4031C19.0214 11.3766 18.9266 11.3528 18.8313 11.3316C18.6556 11.3026 18.4984 11.2057 18.3936 11.0618C18.2888 10.9179 18.2449 10.7385 18.2712 10.5625H18.272Z" fill="white"/>
<path fill-rule="evenodd" clip-rule="evenodd" d="M18.4737 13.6444C18.4978 13.5597 18.5383 13.4806 18.593 13.4116C18.6477 13.3426 18.7154 13.2851 18.7923 13.2423C18.8692 13.1995 18.9538 13.1723 19.0412 13.1621C19.1286 13.152 19.2172 13.1593 19.3018 13.1834L19.3045 13.1843L19.3072 13.1852L19.3144 13.187L19.3322 13.1923L19.3822 13.2102C19.6197 13.3017 19.8489 13.4131 20.0674 13.5434C20.5043 13.8025 21.101 14.2313 21.8023 14.9334C22.5036 15.6347 22.9333 16.2315 23.1924 16.6683C23.3219 16.8872 23.4076 17.065 23.463 17.1954C23.4927 17.2636 23.5196 17.3331 23.5434 17.4035L23.5479 17.4214L23.5506 17.4286V17.4312L23.5515 17.4321C23.5515 17.4321 23.5515 17.4339 22.9083 17.6179L23.5515 17.4339C23.5968 17.603 23.5743 17.783 23.4886 17.9356C23.4029 18.0883 23.2609 18.2013 23.0929 18.2505C22.925 18.2998 22.7444 18.2814 22.5899 18.1992C22.4353 18.117 22.3191 17.9777 22.266 17.8109L22.2633 17.802C22.2005 17.6464 22.1258 17.4959 22.0399 17.3517C21.8398 17.0149 21.4798 16.5057 20.8545 15.8804C20.2291 15.2551 19.7208 14.8959 19.384 14.6967C19.2399 14.6108 19.0894 14.5362 18.9338 14.4734L18.9249 14.4698C18.7561 14.4191 18.6141 14.3039 18.5297 14.1492C18.4452 13.9946 18.4251 13.8137 18.4737 13.6444Z" fill="white"/>
</svg>
