<svg width="36" height="36" viewBox="0 0 36 36" fill="none" xmlns="http://www.w3.org/2000/svg">
<circle cx="18" cy="18" r="18" fill="#AB0101"/>
<path d="M26 18C26 20.1217 25.1571 22.1566 23.6569 23.6569C22.1566 25.1571 20.1217 26 18 26C15.8783 26 13.8434 25.1571 12.3431 23.6569C10.8429 22.1566 10 20.1217 10 18C10 15.8783 10.8429 13.8434 12.3431 12.3431C13.8434 10.8429 15.8783 10 18 10C20.1217 10 22.1566 10.8429 23.6569 12.3431C25.1571 13.8434 26 15.8783 26 18ZM18 13.5C18 13.3674 17.9473 13.2402 17.8536 13.1464C17.7598 13.0527 17.6326 13 17.5 13C17.3674 13 17.2402 13.0527 17.1464 13.1464C17.0527 13.2402 17 13.3674 17 13.5V19C17 19.0881 17.0234 19.1747 17.0676 19.2509C17.1119 19.3271 17.1755 19.3903 17.252 19.434L20.752 21.434C20.8669 21.4961 21.0014 21.5108 21.127 21.4749C21.2525 21.4391 21.3591 21.3556 21.4238 21.2422C21.4886 21.1288 21.5065 20.9946 21.4736 20.8683C21.4408 20.7419 21.3598 20.6334 21.248 20.566L18 18.71V13.5Z" fill="white"/>
</svg>
