<svg width="36" height="36" viewBox="0 0 36 36" fill="none" xmlns="http://www.w3.org/2000/svg">
<circle cx="18" cy="18" r="18" fill="#AB0101"/>
<path d="M18 9C14.325 9 11 11.9455 11 16.501C11 19.4099 13.1438 22.831 17.4225 26.7736C17.755 27.0755 18.2537 27.0755 18.5863 26.7736C22.8562 22.831 25 19.4099 25 16.501C25 11.9455 21.675 9 18 9ZM18 18.1475C17.0375 18.1475 16.25 17.3242 16.25 16.318C16.25 15.3118 17.0375 14.4885 18 14.4885C18.9625 14.4885 19.75 15.3118 19.75 16.318C19.75 17.3242 18.9625 18.1475 18 18.1475Z" fill="white"/>
</svg>
