<svg width="10" height="11" viewBox="0 0 10 11" fill="none" xmlns="http://www.w3.org/2000/svg">
<path d="M4.92946 0.833496C7.4678 0.833496 9.52541 2.89111 9.52541 5.42946C9.52541 7.9678 7.4678 10.0254 4.92946 10.0254C2.39111 10.0254 0.333496 7.9678 0.333496 5.42946C0.333496 2.89111 2.39111 0.833496 4.92946 0.833496ZM6.91353 3.96242C6.86349 3.9124 6.79676 3.8826 6.72611 3.87875C6.65546 3.87489 6.58587 3.89724 6.53069 3.94151L6.50725 3.96242L4.18261 6.28706L3.35166 5.45611C3.29972 5.40415 3.22984 5.37407 3.15639 5.37205C3.08295 5.37004 3.01152 5.39624 2.95681 5.44528C2.90209 5.49431 2.86824 5.56245 2.86223 5.63567C2.85621 5.7089 2.87849 5.78165 2.92447 5.83895L2.94538 5.86239L3.97947 6.89649C4.02951 6.94651 4.09624 6.97631 4.16689 6.98017C4.23754 6.98402 4.30713 6.96167 4.36231 6.9174L4.38575 6.89649L6.91353 4.36871C6.94021 4.34203 6.96138 4.31036 6.97582 4.27551C6.99026 4.24065 6.99769 4.20329 6.99769 4.16557C6.99769 4.12784 6.99026 4.09048 6.97582 4.05562C6.96138 4.02077 6.94021 3.9891 6.91353 3.96242Z" fill="#AB0101"/>
</svg>
