<svg width="25" height="26" viewBox="0 0 25 26" fill="none" xmlns="http://www.w3.org/2000/svg">
<path d="M12.3589 3.66699C17.4356 3.66699 21.5508 7.78221 21.5508 12.8589C21.5508 17.9356 17.4356 22.0508 12.3589 22.0508C7.28221 22.0508 3.16699 17.9356 3.16699 12.8589C3.16699 7.78221 7.28221 3.66699 12.3589 3.66699ZM16.3271 9.92485C16.227 9.8248 16.0935 9.76521 15.9522 9.75749C15.8109 9.74977 15.6717 9.79447 15.5614 9.88303L15.5145 9.92485L10.8652 14.5741L9.20333 12.9122C9.09944 12.8083 8.95968 12.7481 8.81279 12.7441C8.66589 12.7401 8.52304 12.7925 8.41361 12.8906C8.30418 12.9886 8.23649 13.1249 8.22446 13.2713C8.21243 13.4178 8.25698 13.5633 8.34894 13.6779L8.39076 13.7248L10.4589 15.793C10.559 15.893 10.6925 15.9526 10.8338 15.9603C10.9751 15.968 11.1143 15.9233 11.2246 15.8348L11.2715 15.793L16.3271 10.7374C16.3804 10.6841 16.4228 10.6207 16.4516 10.551C16.4805 10.4813 16.4954 10.4066 16.4954 10.3311C16.4954 10.2557 16.4805 10.181 16.4516 10.1112C16.4228 10.0415 16.3804 9.9782 16.3271 9.92485Z" fill="#AB0101"/>
</svg>
