<svg width="32" height="33" viewBox="0 0 32 33" fill="none" xmlns="http://www.w3.org/2000/svg">
<path d="M16.0003 3.16699C8.64033 3.16699 2.66699 9.14033 2.66699 16.5003C2.66699 23.8603 8.64033 29.8337 16.0003 29.8337C23.3603 29.8337 29.3337 23.8603 29.3337 16.5003C29.3337 9.14033 23.3603 3.16699 16.0003 3.16699ZM22.187 12.2337C21.987 14.3403 21.1203 19.4603 20.6803 21.8203C20.4937 22.8203 20.1203 23.1537 19.7737 23.1937C19.0003 23.2603 18.4137 22.687 17.667 22.1937C16.4937 21.4203 15.827 20.9403 14.6937 20.1937C13.3737 19.327 14.227 18.847 14.987 18.0737C15.187 17.8737 18.6003 14.767 18.667 14.487C18.6763 14.4446 18.675 14.4006 18.6634 14.3587C18.6518 14.3169 18.6301 14.2785 18.6003 14.247C18.5203 14.1803 18.4137 14.207 18.3203 14.2203C18.2003 14.247 16.3337 15.487 12.6937 17.9403C12.1603 18.3003 11.6803 18.487 11.2537 18.4737C10.7737 18.4603 9.86699 18.207 9.18699 17.9803C8.34699 17.7137 7.69366 17.567 7.74699 17.1003C7.77366 16.8603 8.10699 16.6203 8.73366 16.367C12.627 14.6737 15.2137 13.5537 16.507 13.0203C20.2137 11.4737 20.9737 11.207 21.4803 11.207C21.587 11.207 21.8403 11.2337 22.0003 11.367C22.1337 11.4737 22.1737 11.6203 22.187 11.727C22.1737 11.807 22.2003 12.047 22.187 12.2337Z" fill="#AB0101"/>
</svg>
