<svg width="40" height="40" viewBox="0 0 40 40" fill="none" xmlns="http://www.w3.org/2000/svg">
<circle cx="20" cy="20" r="20" fill="#AB0101"/>
<path d="M11.8538 17.1175C12.5189 17.1175 13.0581 16.5588 13.0581 15.8695C13.0581 15.1803 12.5189 14.6216 11.8538 14.6216C11.1886 14.6216 10.6494 15.1803 10.6494 15.8695C10.6494 16.5588 11.1886 17.1175 11.8538 17.1175Z" fill="white"/>
<path d="M22.1846 12.539C23.5276 12.539 24.6163 11.4109 24.6163 10.0193C24.6163 8.62765 23.5276 7.49951 22.1846 7.49951C20.8416 7.49951 19.7529 8.62765 19.7529 10.0193C19.7529 11.4109 20.8416 12.539 22.1846 12.539Z" fill="white"/>
<path d="M17.1688 12.3952C18.0066 12.3952 18.6857 11.6915 18.6857 10.8233C18.6857 9.95522 18.0066 9.25146 17.1688 9.25146C16.331 9.25146 15.6519 9.95522 15.6519 10.8233C15.6519 11.6915 16.331 12.3952 17.1688 12.3952Z" fill="white"/>
<path d="M24.1564 26.8365C23.7827 26.2148 23.5729 25.5024 23.5481 24.7704C23.5232 24.0385 23.6842 23.3125 24.015 22.6652L24.0056 22.6506C24.6283 21.6845 24.96 20.5485 24.9586 19.3867C24.9586 16.1314 22.4118 13.4927 19.2706 13.4927C16.1291 13.4927 13.5825 16.1314 13.5825 19.3867C13.5825 20.0225 13.6824 20.6335 13.8624 21.2075C13.9815 21.7151 14.175 22.2008 14.436 22.6477L14.4094 22.6635L18.5294 30.0584C18.9643 31.392 20.1789 32.3531 21.6124 32.3531C23.4109 32.3531 24.8696 30.8425 24.8696 28.9786C24.8696 28.1701 24.5944 27.4283 24.1365 26.8471L24.1564 26.8365Z" fill="white"/>
<path d="M13.9651 14.4754C14.6302 14.4754 15.1694 13.9167 15.1694 13.2274C15.1694 12.5382 14.6302 11.9795 13.9651 11.9795C13.2999 11.9795 12.7607 12.5382 12.7607 13.2274C12.7607 13.9167 13.2999 14.4754 13.9651 14.4754Z" fill="white"/>
</svg>
