<svg width="40" height="40" viewBox="0 0 40 40" fill="none" xmlns="http://www.w3.org/2000/svg">
<circle cx="20" cy="20" r="20" fill="#AB0101"/>
<path d="M29 19.11V14C29 13.4696 28.7893 12.9609 28.4142 12.5858C28.0391 12.2107 27.5304 12 27 12H22.82C22.4 10.84 21.3 10 20 10C18.7 10 17.6 10.84 17.18 12H13C11.9 12 11 12.9 11 14V27C11 27.5304 11.2107 28.0391 11.5858 28.4142C11.9609 28.7893 12.4696 29 13 29H19.11C20.37 30.24 22.09 31 24 31C27.87 31 31 27.87 31 24C31 22.09 30.24 20.37 29 19.11ZM20 12C20.55 12 21 12.45 21 13C21 13.55 20.55 14 20 14C19.45 14 19 13.55 19 13C19 12.45 19.45 12 20 12ZM13 15H27V17H13V15ZM17.08 25H13V23H17.08C17.03 23.33 17 23.66 17 24C17 24.34 17.03 24.67 17.08 25ZM13 21V19H19.11C18.5 19.57 18.04 20.25 17.68 21H13ZM24 29C21.24 29 19 26.76 19 24C19 21.24 21.24 19 24 19C26.76 19 29 21.24 29 24C29 26.76 26.76 29 24 29ZM24.5 24.25L27.36 25.94L26.61 27.16L23 25V20H24.5V24.25Z" fill="white"/>
</svg>
