<svg width="32" height="33" viewBox="0 0 32 33" fill="none" xmlns="http://www.w3.org/2000/svg">
<circle cx="15.5" cy="16" r="13.5" fill="#AB0101"/>
<path d="M18.6875 9.09375H12.3125C11.3265 9.0948 10.3813 9.48694 9.68411 10.1841C8.98694 10.8813 8.5948 11.8265 8.59375 12.8125V19.1875C8.5948 20.1735 8.98694 21.1187 9.68411 21.8159C10.3813 22.5131 11.3265 22.9052 12.3125 22.9062H18.6875C19.6735 22.9052 20.6187 22.5131 21.3159 21.8159C22.0131 21.1187 22.4052 20.1735 22.4062 19.1875V12.8125C22.4052 11.8265 22.0131 10.8813 21.3159 10.1841C20.6187 9.48694 19.6735 9.0948 18.6875 9.09375ZM15.5 19.1875C14.8696 19.1875 14.2533 19.0006 13.7291 18.6503C13.2049 18.3001 12.7964 17.8022 12.5551 17.2198C12.3139 16.6374 12.2508 15.9965 12.3737 15.3781C12.4967 14.7598 12.8003 14.1919 13.2461 13.7461C13.6919 13.3003 14.2598 12.9967 14.8781 12.8737C15.4965 12.7508 16.1374 12.8139 16.7198 13.0551C17.3022 13.2964 17.8001 13.7049 18.1503 14.2291C18.5006 14.7533 18.6875 15.3696 18.6875 16C18.6866 16.8451 18.3505 17.6554 17.7529 18.2529C17.1554 18.8505 16.3451 19.1866 15.5 19.1875ZM19.4844 12.8125C19.3268 12.8125 19.1727 12.7658 19.0417 12.6782C18.9106 12.5906 18.8085 12.4662 18.7482 12.3206C18.6878 12.175 18.6721 12.0147 18.7028 11.8602C18.7336 11.7056 18.8095 11.5636 18.9209 11.4521C19.0323 11.3407 19.1743 11.2648 19.3289 11.2341C19.4835 11.2033 19.6437 11.2191 19.7893 11.2794C19.9349 11.3397 20.0594 11.4419 20.147 11.5729C20.2345 11.704 20.2812 11.858 20.2812 12.0156C20.2812 12.227 20.1973 12.4297 20.0479 12.5791C19.8984 12.7285 19.6957 12.8125 19.4844 12.8125ZM17.625 16C17.625 16.4203 17.5004 16.8311 17.2669 17.1806C17.0334 17.53 16.7015 17.8024 16.3132 17.9632C15.9249 18.1241 15.4976 18.1662 15.0854 18.0842C14.6732 18.0022 14.2946 17.7998 13.9974 17.5026C13.7002 17.2054 13.4978 16.8268 13.4158 16.4146C13.3338 16.0024 13.3759 15.5751 13.5368 15.1868C13.6976 14.7985 13.97 14.4666 14.3194 14.2331C14.6689 13.9996 15.0797 13.875 15.5 13.875C16.0636 13.875 16.6041 14.0989 17.0026 14.4974C17.4011 14.8959 17.625 15.4364 17.625 16Z" fill="white"/>
</svg>
