<svg width="36" height="37" viewBox="0 0 36 37" fill="none" xmlns="http://www.w3.org/2000/svg">
<circle cx="18" cy="18.5" r="18" fill="#AB0101"/>
<path d="M18 9.5C14.325 9.5 11 12.4455 11 17.001C11 19.9099 13.1438 23.331 17.4225 27.2736C17.755 27.5755 18.2537 27.5755 18.5863 27.2736C22.8562 23.331 25 19.9099 25 17.001C25 12.4455 21.675 9.5 18 9.5ZM18 18.6475C17.0375 18.6475 16.25 17.8242 16.25 16.818C16.25 15.8118 17.0375 14.9885 18 14.9885C18.9625 14.9885 19.75 15.8118 19.75 16.818C19.75 17.8242 18.9625 18.6475 18 18.6475Z" fill="white"/>
</svg>
