<svg width="57" height="57" viewBox="0 0 57 57" fill="none" xmlns="http://www.w3.org/2000/svg">
<circle cx="28.5" cy="28.5" r="28" fill="white" stroke="#AB0101"/>
<ellipse cx="18.0557" cy="16.6094" rx="1.13095" ry="2.03571" transform="rotate(-11.8351 18.0557 16.6094)" fill="#9B9B9B"/>
<ellipse cx="20.6865" cy="12.413" rx="1.25119" ry="2.25215" transform="rotate(-11.8351 20.6865 12.413)" fill="#9B9B9B"/>
<ellipse cx="24.3056" cy="9.24648" rx="1.25119" ry="2.25215" transform="rotate(-11.8351 24.3056 9.24648)" fill="#9B9B9B"/>
<ellipse cx="28.1061" cy="7.31544" rx="1.25119" ry="2.25215" transform="rotate(-4.2757 28.1061 7.31544)" fill="#9B9B9B"/>
<ellipse cx="34.0102" cy="8.19479" rx="2.68367" ry="3.74206" transform="rotate(19.6122 34.0102 8.19479)" fill="#9B9B9B"/>
<path d="M30.5357 26.9167C33.7335 28.7262 33.9286 34.1548 33.9286 34.1548C33.9286 34.1548 31.6667 26.6905 27.1428 28.7262C24.7196 29.8167 24.2928 33.233 25.65 35.2687C26.5372 36.5995 30.2546 40.6433 31.2143 43.2024C31.8928 45.0119 32.4386 47.7152 31.2143 49.762C29.7911 52.1411 27.3311 53.1992 24.6548 52.4762C22.0444 51.7711 20.4334 49.7505 20.3571 47.0477C20.3062 45.2437 20.8095 42.5238 20.8095 42.5238C20.8095 42.5238 20.4478 47.8336 23.3163 49.7619C25.0087 50.8997 26.848 50.9576 28.5 49.762C30.1843 48.5429 30.649 46.255 29.925 44.5312C27.369 38.4467 26.3625 39.5437 24.225 35.625C23.3089 33.8438 22.3826 29.3551 26.0062 27.0751C26.911 26.4874 28.7525 25.9076 30.5357 26.9167Z" fill="#9B9B9B"/>
<path d="M19.2374 32.7749C20.6625 37.0499 27.5954 47.5007 27.5954 47.5007C27.5954 47.5007 19.2374 33.7031 20.3062 25.2937C20.646 22.6198 22.0874 18.1687 26.0062 15.6079C27.7874 14.4439 30.2186 14.0317 32.5716 15.6079C34.7794 17.0868 35.5121 19.9037 34.8335 21.7141C34.2453 23.2835 32.6534 23.4893 30.9883 23.2984C28.8084 23.0484 26.6906 19.6793 26.6906 19.6793C26.6906 19.6793 27.84 23.9597 30.0835 24.8817C32.6672 25.9435 35.4325 25.0153 36.8692 22.6198C38.2264 20.357 37.1026 15.5628 33.9287 13.7984C31.893 12.6666 29.4049 12.2896 27.5954 12.667C24.4288 13.3274 20.7998 16.5084 19.2375 21.0187C18.2189 23.9592 17.7848 28.4174 19.2374 32.7749Z" fill="#AB0101"/>
</svg>
