<svg width="60" height="60" viewBox="0 0 60 60" fill="none" xmlns="http://www.w3.org/2000/svg">
<circle cx="30" cy="30" r="29" fill="white" stroke="#AB0101" stroke-width="2"/>
<ellipse cx="19.006" cy="17.4835" rx="1.19048" ry="2.14286" transform="rotate(-11.8351 19.006 17.4835)" fill="#9B9B9B"/>
<ellipse cx="21.7753" cy="13.0663" rx="1.31704" ry="2.37068" transform="rotate(-11.8351 21.7753 13.0663)" fill="#9B9B9B"/>
<ellipse cx="25.5848" cy="9.73327" rx="1.31704" ry="2.37068" transform="rotate(-11.8351 25.5848 9.73327)" fill="#9B9B9B"/>
<ellipse cx="29.5849" cy="7.70046" rx="1.31704" ry="2.37068" transform="rotate(-4.27569 29.5849 7.70046)" fill="#9B9B9B"/>
<ellipse cx="35.7998" cy="8.62621" rx="2.82491" ry="3.93901" transform="rotate(19.6122 35.7998 8.62621)" fill="#9B9B9B"/>
<path d="M32.1429 28.3333C35.509 30.238 35.7143 35.9524 35.7143 35.9524C35.7143 35.9524 33.3334 28.0952 28.5715 30.2381C26.0206 31.3859 25.5714 34.982 27 37.1249C27.9339 38.5257 31.847 42.7824 32.8572 45.4762C33.5715 47.3809 34.1459 50.2265 32.8572 52.3809C31.3592 54.8853 28.7697 55.9991 25.9524 55.2381C23.2047 54.4958 21.5089 52.3689 21.4286 49.5238C21.375 47.6249 21.9048 44.7619 21.9048 44.7619C21.9048 44.7619 21.5241 50.3511 24.5435 52.3809C26.325 53.5786 28.2611 53.6396 30 52.3809C31.7729 51.0978 32.2622 48.6894 31.5 46.8749C28.8095 40.4701 27.75 41.6249 25.5 37.4999C24.5357 35.625 23.5607 30.9 27.375 28.5C28.3274 27.8814 30.2659 27.2712 32.1429 28.3333Z" fill="#9B9B9B"/>
<path d="M20.2495 34.5001C21.7495 39.0001 29.0473 50.001 29.0473 50.001C29.0473 50.001 20.2495 35.4772 21.3745 26.6251C21.7322 23.8105 23.2495 19.1251 27.3745 16.4296C29.2495 15.2043 31.8086 14.7704 34.2854 16.4296C36.6094 17.9863 37.3807 20.9515 36.6664 22.8572C36.0472 24.5092 34.3715 24.7258 32.6188 24.5248C30.3242 24.2617 28.095 20.7153 28.095 20.7153C28.095 20.7153 29.3048 25.221 31.6664 26.1915C34.386 27.3091 37.2969 26.3321 38.8092 23.8105C40.2378 21.4286 39.0549 16.3821 35.714 14.5248C33.5711 13.3335 30.9521 12.9366 29.0473 13.3338C25.7141 14.029 21.8941 17.3774 20.2495 22.1251C19.1773 25.2204 18.7204 29.9132 20.2495 34.5001Z" fill="#AB0101"/>
</svg>
