<svg width="13" height="14" viewBox="0 0 13 14" fill="none" xmlns="http://www.w3.org/2000/svg">
<path d="M5.51387 0.656416C8.79542 0.195224 11.8605 2.70311 12.3601 6.25812C12.8597 9.81313 10.6047 13.0687 7.32312 13.5299C4.04157 13.9911 0.976515 11.4832 0.476891 7.9282C-0.0227336 4.37318 2.23232 1.11761 5.51387 0.656416ZM8.69474 4.67806C8.6202 4.6171 8.52806 4.58749 8.43597 4.59492C8.34388 4.60235 8.25831 4.6463 8.19568 4.71834L8.1695 4.75188L5.62179 8.42995L4.38399 7.41716C4.30661 7.35382 4.21035 7.32439 4.115 7.33491C4.01966 7.34543 3.93248 7.39511 3.87139 7.47373C3.81031 7.55234 3.77997 7.65392 3.7866 7.75757C3.79324 7.86122 3.83635 7.95905 3.90707 8.03096L3.93872 8.05999L5.47913 9.32037C5.55366 9.38134 5.6458 9.41094 5.73789 9.40351C5.82999 9.39608 5.91555 9.35213 5.97818 9.2801L6.00436 9.24655L8.7747 5.24707C8.80395 5.20487 8.82508 5.15667 8.83689 5.10523C8.84869 5.05379 8.85095 5.00012 8.84352 4.94728C8.8361 4.89444 8.81913 4.84347 8.79361 4.79727C8.76808 4.75108 8.73448 4.71057 8.69474 4.67806Z" fill="#AB0101"/>
</svg>
