<svg width="8" height="8" viewBox="0 0 8 8" fill="none" xmlns="http://www.w3.org/2000/svg">
<path d="M3.02893 0.864945C4.94316 0.595916 6.71294 1.92954 6.98197 3.84378C7.251 5.75801 5.91738 7.52779 4.00314 7.79682C2.0889 8.06585 0.319123 6.73223 0.0500942 4.81799C-0.218934 2.90375 1.11469 1.13397 3.02893 0.864945ZM4.85679 3.01427C4.81376 2.98185 4.76027 2.96645 4.70658 2.97103C4.6529 2.97561 4.60279 2.99984 4.56586 3.03908L4.5504 3.05733L3.04371 5.05678L2.329 4.51821C2.28432 4.48453 2.22843 4.46925 2.17283 4.47551C2.11723 4.48178 2.06615 4.50911 2.03008 4.55189C1.99402 4.59466 1.97571 4.64964 1.97894 4.7055C1.98216 4.76135 2.00667 4.81386 2.04742 4.8522L2.06567 4.86766L2.95511 5.5379C2.99814 5.57032 3.05163 5.58571 3.10532 5.58114C3.159 5.57656 3.20911 5.55233 3.24604 5.51309L3.2615 5.49484L4.89985 3.32066C4.91715 3.29772 4.92975 3.27159 4.93695 3.24378C4.94414 3.21596 4.94579 3.187 4.94179 3.15855C4.93779 3.1301 4.92823 3.10271 4.91364 3.07795C4.89906 3.0532 4.87974 3.03156 4.85679 3.01427Z" fill="#AB0101"/>
</svg>
