<svg width="10" height="10" viewBox="0 0 10 16" fill="none" xmlns="http://www.w3.org/2000/svg">
<path d="M1.89647 15.5832L8.9173 8.58317C9.00064 8.49984 9.0598 8.40956 9.0948 8.31234C9.1298 8.21512 9.14703 8.11095 9.14647 7.99984C9.14647 7.88873 9.12897 7.78456 9.09397 7.68734C9.05897 7.59012 9.00008 7.49984 8.9173 7.4165L1.89647 0.395671C1.70203 0.201226 1.45897 0.104004 1.1673 0.104004C0.875638 0.104004 0.625638 0.208171 0.417305 0.416504C0.208972 0.624837 0.104805 0.867893 0.104805 1.14567C0.104805 1.42345 0.208972 1.6665 0.417305 1.87484L6.5423 7.99984L0.417305 14.1248C0.22286 14.3193 0.125638 14.559 0.125638 14.844C0.125638 15.129 0.229805 15.3754 0.438138 15.5832C0.646471 15.7915 0.889526 15.8957 1.1673 15.8957C1.44508 15.8957 1.68814 15.7915 1.89647 15.5832Z" fill="#AB0101"/>
</svg>
