<svg width="32" height="33" viewBox="0 0 32 33" fill="none" xmlns="http://www.w3.org/2000/svg">
<rect y="0.5" width="32" height="32" rx="16" fill="#AB0101"/>
<path d="M13.9076 18.1011L20.081 11.794C20.2729 11.598 20.517 11.5 20.8135 11.5C21.1099 11.5 21.3541 11.598 21.5459 11.794C21.7377 11.99 21.8337 12.2394 21.8337 12.5423C21.8337 12.8452 21.7377 13.0946 21.5459 13.2906L14.6401 20.346C14.4308 20.5598 14.1867 20.6667 13.9076 20.6667C13.6286 20.6667 13.3845 20.5598 13.1752 20.346L10.4547 17.5666C10.2629 17.3706 10.167 17.1212 10.167 16.8183C10.167 16.5154 10.2629 16.266 10.4547 16.07C10.6466 15.874 10.8907 15.776 11.1872 15.776C11.4836 15.776 11.7278 15.874 11.9196 16.07L13.9076 18.1011Z" fill="white"/>
</svg>
