<svg width="32" height="33" viewBox="0 0 32 33" fill="none" xmlns="http://www.w3.org/2000/svg">
<path d="M21.8337 16.4998C21.8337 16.6288 21.7824 16.7524 21.6913 16.8436C21.6001 16.9347 21.4765 16.9859 21.3475 16.9859H16.4864V21.8471C16.4864 21.976 16.4352 22.0996 16.3441 22.1908C16.2529 22.282 16.1293 22.3332 16.0003 22.3332C15.8714 22.3332 15.7478 22.282 15.6566 22.1908C15.5654 22.0996 15.5142 21.976 15.5142 21.8471V16.9859H10.6531C10.5242 16.9859 10.4005 16.9347 10.3094 16.8436C10.2182 16.7524 10.167 16.6288 10.167 16.4998C10.167 16.3709 10.2182 16.2473 10.3094 16.1561C10.4005 16.0649 10.5242 16.0137 10.6531 16.0137H15.5142V11.1526C15.5142 11.0237 15.5654 10.9 15.6566 10.8089C15.7478 10.7177 15.8714 10.6665 16.0003 10.6665C16.1293 10.6665 16.2529 10.7177 16.3441 10.8089C16.4352 10.9 16.4864 11.0237 16.4864 11.1526V16.0137H21.3475C21.4765 16.0137 21.6001 16.0649 21.6913 16.1561C21.7824 16.2473 21.8337 16.3709 21.8337 16.4998Z" fill="#AB0101"/>
<rect x="0.5" y="1" width="31" height="31" rx="15.5" stroke="#AB0101"/>
</svg>
