<svg width="61" height="12" viewBox="0 0 61 12" fill="none" xmlns="http://www.w3.org/2000/svg">
<path d="M5.52447 1.46353C5.67415 1.00287 6.32585 1.00287 6.47553 1.46353L7.23483 3.80041C7.30176 4.00642 7.49374 4.1459 7.71036 4.1459H10.1675C10.6519 4.1459 10.8532 4.76571 10.4614 5.05041L8.47352 6.49468C8.29828 6.622 8.22495 6.84768 8.29188 7.0537L9.05118 9.39058C9.20086 9.85123 8.67362 10.2343 8.28176 9.94959L6.29389 8.50532C6.11865 8.378 5.88135 8.378 5.70611 8.50532L3.71824 9.94959C3.32638 10.2343 2.79914 9.85123 2.94882 9.39058L3.70812 7.0537C3.77505 6.84768 3.70172 6.622 3.52648 6.49468L1.53861 5.05041C1.14675 4.76571 1.34814 4.1459 1.8325 4.1459H4.28964C4.50626 4.1459 4.69824 4.00642 4.76517 3.80041L5.52447 1.46353Z" fill="#FFE600"/>
<path d="M17.5245 1.46353C17.6741 1.00287 18.3259 1.00287 18.4755 1.46353L19.2348 3.80041C19.3018 4.00642 19.4937 4.1459 19.7104 4.1459H22.1675C22.6519 4.1459 22.8532 4.76571 22.4614 5.05041L20.4735 6.49468C20.2983 6.622 20.2249 6.84768 20.2919 7.0537L21.0512 9.39058C21.2009 9.85123 20.6736 10.2343 20.2818 9.94959L18.2939 8.50532C18.1186 8.378 17.8814 8.378 17.7061 8.50532L15.7182 9.94959C15.3264 10.2343 14.7991 9.85123 14.9488 9.39058L15.7081 7.0537C15.7751 6.84768 15.7017 6.622 15.5265 6.49468L13.5386 5.05041C13.1468 4.76571 13.3481 4.1459 13.8325 4.1459H16.2896C16.5063 4.1459 16.6982 4.00642 16.7652 3.80041L17.5245 1.46353Z" fill="#FFE600"/>
<path d="M30.0284 1.33989C30.1851 0.89457 30.8149 0.894571 30.9716 1.33989L31.8418 3.81191C31.9122 4.01202 32.1013 4.1459 32.3134 4.1459H35.0386C35.5326 4.1459 35.7274 4.78601 35.3171 5.06116L33.183 6.4924C32.9936 6.61943 32.9142 6.85854 32.9899 7.07367L33.821 9.43467C33.9807 9.88837 33.4703 10.2838 33.0708 10.0159L30.7785 8.47857C30.61 8.36558 30.39 8.36558 30.2215 8.47857L27.9292 10.0159C27.5297 10.2838 27.0193 9.88837 27.179 9.43467L28.0101 7.07367C28.0858 6.85854 28.0064 6.61943 27.817 6.4924L25.6829 5.06116C25.2726 4.78601 25.4674 4.1459 25.9614 4.1459H28.6866C28.8987 4.1459 29.0878 4.01202 29.1582 3.81191L30.0284 1.33989Z" fill="#FFE600"/>
<path d="M42.5245 1.46353C42.6741 1.00287 43.3259 1.00287 43.4755 1.46353L44.2348 3.80041C44.3018 4.00642 44.4937 4.1459 44.7104 4.1459H47.1675C47.6519 4.1459 47.8532 4.76571 47.4614 5.05041L45.4735 6.49468C45.2983 6.622 45.2249 6.84768 45.2919 7.0537L46.0512 9.39058C46.2009 9.85123 45.6736 10.2343 45.2818 9.94959L43.2939 8.50532C43.1186 8.378 42.8814 8.378 42.7061 8.50532L40.7182 9.94959C40.3264 10.2343 39.7991 9.85123 39.9488 9.39058L40.7081 7.0537C40.7751 6.84768 40.7017 6.622 40.5265 6.49468L38.5386 5.05041C38.1468 4.76571 38.3481 4.1459 38.8325 4.1459H41.2896C41.5063 4.1459 41.6982 4.00642 41.7652 3.80041L42.5245 1.46353Z" fill="#FFE600"/>
<path d="M54.5245 1.46353C54.6741 1.00287 55.3259 1.00287 55.4755 1.46353L56.2348 3.80041C56.3018 4.00642 56.4937 4.1459 56.7104 4.1459H59.1675C59.6519 4.1459 59.8532 4.76571 59.4614 5.05041L57.4735 6.49468C57.2983 6.622 57.2249 6.84768 57.2919 7.0537L58.0512 9.39058C58.2009 9.85123 57.6736 10.2343 57.2818 9.94959L55.2939 8.50532C55.1186 8.378 54.8814 8.378 54.7061 8.50532L52.7182 9.94959C52.3264 10.2343 51.7991 9.85123 51.9488 9.39058L52.7081 7.0537C52.7751 6.84768 52.7017 6.622 52.5265 6.49468L50.5386 5.05041C50.1468 4.76571 50.3481 4.1459 50.8325 4.1459H53.2896C53.5063 4.1459 53.6982 4.00642 53.7652 3.80041L54.5245 1.46353Z" fill="#FFE600"/>
</svg>
