<svg width="36" height="37" viewBox="0 0 36 37" fill="none" xmlns="http://www.w3.org/2000/svg">
<circle cx="18" cy="18.5" r="18" fill="#AB0101"/>
<path d="M26 18.5C26 20.6217 25.1571 22.6566 23.6569 24.1569C22.1566 25.6571 20.1217 26.5 18 26.5C15.8783 26.5 13.8434 25.6571 12.3431 24.1569C10.8429 22.6566 10 20.6217 10 18.5C10 16.3783 10.8429 14.3434 12.3431 12.8431C13.8434 11.3429 15.8783 10.5 18 10.5C20.1217 10.5 22.1566 11.3429 23.6569 12.8431C25.1571 14.3434 26 16.3783 26 18.5ZM18 14C18 13.8674 17.9473 13.7402 17.8536 13.6464C17.7598 13.5527 17.6326 13.5 17.5 13.5C17.3674 13.5 17.2402 13.5527 17.1464 13.6464C17.0527 13.7402 17 13.8674 17 14V19.5C17 19.5881 17.0234 19.6747 17.0676 19.7509C17.1119 19.8271 17.1755 19.8903 17.252 19.934L20.752 21.934C20.8669 21.9961 21.0014 22.0108 21.127 21.9749C21.2525 21.9391 21.3591 21.8556 21.4238 21.7422C21.4886 21.6288 21.5065 21.4946 21.4736 21.3683C21.4408 21.2419 21.3598 21.1334 21.248 21.066L18 19.21V14Z" fill="white"/>
</svg>
